<svg xmlns="http://www.w3.org/2000/svg" width="620.914" height="446.701" viewBox="0 0 620.914 446.701">
  <g id="Group_41" data-name="Group 41" transform="translate(-988.391 -423.649)">
    <g id="Group_628" data-name="Group 628" transform="translate(1440.551 423.649)">
      <g id="Group_506" data-name="Group 506" transform="translate(48.255 48.337)">
        <path id="Path_1036" data-name="Path 1036" d="M1682.38,2868.83a2.129,2.129,0,0,1-.216-.011,2.059,2.059,0,0,1-1.76-1.469l-10.821-36.892-10.733,16.4a2.059,2.059,0,0,1-3.445-2.256l13.175-20.129a2.059,2.059,0,0,1,3.7.55l10.667,36.366,16.791-31.137a2.057,2.057,0,0,1,3.46-.256l12.389,16.565,20.365-44.866a2.058,2.058,0,0,1,3.808.145l15.2,41.6,16.8-26.976a2.059,2.059,0,0,1,3.5,2.177l-19.034,30.56a2.059,2.059,0,0,1-3.681-.383l-14.921-40.836-19.723,43.452a2.057,2.057,0,0,1-3.522.381l-12.544-16.769-17.639,32.707a2.058,2.058,0,0,1-1.811,1.077Z" transform="translate(-1655.068 -2800.487)" fill="#e8505b"/>
      </g>
      <g id="Group_510" data-name="Group 510">
        <g id="Group_507" data-name="Group 507" transform="translate(1.517)">
          <path id="Path_1037" data-name="Path 1037" d="M1622.22,2783.89a25.986,25.986,0,0,1,31.58-16.39,24.343,24.343,0,0,1,6.04,2.571l-13.79,20.574Z" transform="translate(-1622.22 -2766.516)" fill="#e8505b"/>
        </g>
        <g id="Group_508" data-name="Group 508" transform="translate(12.886 5.308)">
          <path id="Path_1038" data-name="Path 1038" d="M1630.21,2813.28l13.79-20.57,15.058-22.464a25.952,25.952,0,0,1-28.847,43.034Z" transform="translate(-1630.21 -2770.246)" fill="#e8505b"/>
        </g>
        <g id="Group_509" data-name="Group 509" transform="translate(0 20.385)">
          <path id="Path_1039" data-name="Path 1039" d="M1621.81,2780.84l22.844,6.48-13.222,19.723a25.483,25.483,0,0,1-9.622-26.2Z" transform="translate(-1621.151 -2780.84)" fill="#e8505b"/>
        </g>
      </g>
      <g id="Group_514" data-name="Group 514" transform="translate(72.308 142.195)">
        <g id="Group_511" data-name="Group 511" transform="translate(9.334)">
          <path id="Path_1040" data-name="Path 1040" d="M1678.53,2866.72a11.9,11.9,0,0,1,13.975,8.363,11.165,11.165,0,0,1,.45,2.971l-11.331-.428Z" transform="translate(-1678.53 -2866.446)" fill="#e8505b"/>
        </g>
        <g id="Group_512" data-name="Group 512" transform="translate(0 12.146)">
          <path id="Path_1041" data-name="Path 1041" d="M1671.97,2874.98l11.328.427,12.371.468a11.88,11.88,0,0,1-23.7-.9Z" transform="translate(-1671.97 -2874.98)" fill="#e8505b"/>
        </g>
        <g id="Group_513" data-name="Group 513" transform="translate(0.058 0.662)">
          <path id="Path_1042" data-name="Path 1042" d="M1679.91,2866.91l2.965,10.457-10.863-.411A11.663,11.663,0,0,1,1679.91,2866.91Z" transform="translate(-1672.012 -2866.91)" fill="#e8505b"/>
        </g>
      </g>
      <g id="Group_518" data-name="Group 518" transform="translate(93.864 13.791)">
        <g id="Group_515" data-name="Group 515" transform="translate(9.334)">
          <path id="Path_1043" data-name="Path 1043" d="M1693.68,2776.48a11.9,11.9,0,0,1,13.973,8.363,11.158,11.158,0,0,1,.451,2.971l-11.331-.427Z" transform="translate(-1693.68 -2776.206)" fill="#e8505b"/>
        </g>
        <g id="Group_516" data-name="Group 516" transform="translate(0 12.154)">
          <path id="Path_1044" data-name="Path 1044" d="M1687.12,2784.75l11.329.426,12.371.468a11.881,11.881,0,0,1-23.7-.9Z" transform="translate(-1687.12 -2784.749)" fill="#e8505b"/>
        </g>
        <g id="Group_517" data-name="Group 517" transform="translate(0.061 0.672)">
          <path id="Path_1045" data-name="Path 1045" d="M1695.06,2776.68l2.967,10.457-10.862-.411a11.663,11.663,0,0,1,7.895-10.046Z" transform="translate(-1687.165 -2776.68)" fill="#e8505b"/>
        </g>
      </g>
    </g>
    <g id="Group_629" data-name="Group 629" transform="translate(1481.877 784.953)">
      <rect id="Rectangle_118" data-name="Rectangle 118" width="97.318" height="11.386" rx="4.896" transform="translate(97.318 85.397) rotate(180)" fill="#6b4c76"/>
      <rect id="Rectangle_119" data-name="Rectangle 119" width="85.197" height="6.768" rx="2.911" transform="translate(115.037 1.465) rotate(102.5)" fill="#6b4c76"/>
    </g>
    <g id="Group_631" data-name="Group 631" transform="translate(1018.91 778.505)">
      <path id="Path_937" data-name="Path 937" d="M1142.4,2512.44a2.018,2.018,0,0,0,.581-.085l9.817-3.046a1.989,1.989,0,0,0,1.4-1.837l.249-7.859a38.494,38.494,0,0,0,8.532-7.084l7.764,1.194a1.986,1.986,0,0,0,2.066-1.045l4.785-9.083a1.988,1.988,0,0,0-.311-2.292l-5.378-5.727a38.444,38.444,0,0,0,1.016-11.043l6.341-4.65a2,2,0,0,0,.724-2.2l-3.043-9.812a2,2,0,0,0-1.837-1.4l-7.86-.247a38.5,38.5,0,0,0-7.086-8.532l1.2-7.766a1.986,1.986,0,0,0-1.048-2.066l-9.082-4.784a1.992,1.992,0,0,0-2.289.309l-5.728,5.378a38.233,38.233,0,0,0-11.045-1.012l-4.648-6.341a1.975,1.975,0,0,0-2.2-.722l-9.806,3.038a2,2,0,0,0-1.4,1.837l-.248,7.861a38.538,38.538,0,0,0-8.532,7.085l-7.767-1.194a2,2,0,0,0-2.062,1.043l-4.786,9.085a1.985,1.985,0,0,0,.312,2.292l5.378,5.725a38.539,38.539,0,0,0-1.016,11.046l-6.341,4.649a1.993,1.993,0,0,0-.726,2.189l3.047,9.819a1.992,1.992,0,0,0,1.835,1.4l7.861.246a38.461,38.461,0,0,0,7.086,8.53l-1.2,7.765a2,2,0,0,0,1.039,2.066l9.091,4.785a1.978,1.978,0,0,0,2.29-.309l5.727-5.379a38.52,38.52,0,0,0,11.045,1.016l4.648,6.341A2,2,0,0,0,1142.4,2512.44Zm9.24-5.466-9.019,2.8-5.237-7.146-.71.051a35.88,35.88,0,0,1-11.622-1.069l-.687-.181-6.452,6.062-8.355-4.4,1.347-8.753-.537-.466a35.924,35.924,0,0,1-7.455-8.975l-.359-.613L1093.7,2484l-2.8-9.017,7.144-5.238-.05-.708a35.979,35.979,0,0,1,1.07-11.624l.177-.688-6.06-6.451,4.4-8.354,8.752,1.347.465-.535a35.942,35.942,0,0,1,8.979-7.458l.612-.362.277-8.855,9.019-2.794,5.238,7.146.71-.051a35.759,35.759,0,0,1,11.62,1.065l.687.181,6.455-6.062,8.353,4.4-1.345,8.751.536.465a35.86,35.86,0,0,1,7.455,8.978l.36.612,8.855.279,2.8,9.018-7.143,5.238.05.708a35.906,35.906,0,0,1-1.07,11.621l-.178.686,6.06,6.457-4.4,8.354-8.749-1.347-.467.538a35.93,35.93,0,0,1-8.976,7.451l-.612.36Zm-33.361.708Zm33.759-.832Zm18.492-15.373Zm-76.709-7.073Zm-3.257-9.17Zm2.422-24.586Zm4.788-9.091Zm61.334-11.418h.006Zm-33.03-6.994Zm-.644-.216Zm8.9,69.632a26.073,26.073,0,1,0-25.094-33.079l2.478.688a23.493,23.493,0,1,1,2.57,18.528l-2.2,1.337a26.155,26.155,0,0,0,22.245,12.525Z" transform="translate(-1088.239 -2420.595)" fill="#e8505b"/>
      <path id="Path_938" data-name="Path 938" d="M1128.9,2471.69c.19,0,.378-.006.569-.015a10.409,10.409,0,1,0-8.3-17.352h0a10.41,10.41,0,0,0,7.73,17.367Zm.018-18.241a4.055,4.055,0,1,1,0-.009Z" transform="translate(-1082.997 -2415.352)" fill="#e8505b"/>
    </g>
    <g id="Group_632" data-name="Group 632" transform="translate(988.391 517.957)">
      <path id="Path_939" data-name="Path 939" d="M1033.41,2399.64a1.5,1.5,0,0,0-.27.354l-3.727,6.854a1.512,1.512,0,0,0,.212,1.741l4.026,4.4a29.268,29.268,0,0,0-.889,8.371l-4.854,3.462a1.508,1.508,0,0,0-.57,1.662l2.208,7.473a1.508,1.508,0,0,0,1.383,1.081l5.956.268a29.183,29.183,0,0,0,5.3,6.544l-.987,5.885a1.515,1.515,0,0,0,.77,1.578l6.849,3.724a1.519,1.519,0,0,0,1.741-.211l4.4-4.029a29.173,29.173,0,0,0,8.372.888l3.462,4.857a1.506,1.506,0,0,0,1.663.569l7.473-2.207a1.513,1.513,0,0,0,1.082-1.381l.268-5.957a29.057,29.057,0,0,0,6.543-5.3l5.886.988a1.5,1.5,0,0,0,1.578-.773l3.725-6.845a1.516,1.516,0,0,0-.212-1.74l-4.027-4.406a29.2,29.2,0,0,0,.889-8.37l4.855-3.464a1.519,1.519,0,0,0,.57-1.659l-2.208-7.475a1.5,1.5,0,0,0-1.383-1.08l-5.956-.268a29.273,29.273,0,0,0-5.3-6.544l.985-5.885a1.512,1.512,0,0,0-.764-1.576l-6.856-3.727a1.51,1.51,0,0,0-1.739.211l-4.4,4.027a29.229,29.229,0,0,0-8.37-.887l-3.462-4.855a1.516,1.516,0,0,0-1.659-.574l-7.478,2.211a1.5,1.5,0,0,0-1.082,1.381l-.266,5.957a29.281,29.281,0,0,0-6.545,5.3l-5.886-.986a1.512,1.512,0,0,0-1.3.413Zm-2.129,7.865,3.423-6.3,6.63,1.112.359-.4a27.266,27.266,0,0,1,6.886-5.573l.469-.265.3-6.712,6.872-2.033,3.9,5.474.538-.032a27.286,27.286,0,0,1,8.806.934l.521.143,4.962-4.536,6.3,3.423-1.112,6.631.4.359a27.31,27.31,0,0,1,5.573,6.887l.268.468,6.711.3,2.031,6.872-5.473,3.9.032.537a27.277,27.277,0,0,1-.935,8.809l-.141.521,4.537,4.962-3.424,6.295-6.633-1.112-.359.4a27.1,27.1,0,0,1-6.883,5.574l-.469.265-.3,6.715-6.872,2.03-3.9-5.473-.537.031a27.257,27.257,0,0,1-8.808-.934l-.521-.145-4.964,4.538-6.294-3.423,1.111-6.632-.4-.358a27.278,27.278,0,0,1-5.571-6.886l-.266-.468-6.715-.3-2.03-6.874,5.472-3.9-.032-.538a27.291,27.291,0,0,1,.936-8.8l.143-.52Zm17.766-18.049Zm-17.918,18.327Zm-1.917,18.152Zm45.461-36.77Zm6.626,3.262Zm11.7,14.654Zm2.21,7.479Zm-27.309,38.683Zm21.666-13.684Zm.465-.224Zm-41.708-33.155a19.79,19.79,0,1,0,31.161,4.7l-1.713.937a17.836,17.836,0,1,1-11.207-8.715l.488-1.891a19.846,19.846,0,0,0-18.729,4.966Z" transform="translate(-1027.274 -2385.302)" fill="#6b4c76"/>
      <path id="Path_940" data-name="Path 940" d="M1052.72,2410.59c-.1.1-.2.2-.3.31a7.9,7.9,0,1,0,13.7,5.042h0a7.9,7.9,0,0,0-13.4-5.352Zm9.648,9.929a2.765,2.765,0,1,0-.008,0Z" transform="translate(-1023.284 -2381.313)" fill="#6b4c76"/>
    </g>
    <g id="Group_633" data-name="Group 633" transform="translate(1182.99 567.533)">
      <path id="Path_941" data-name="Path 941" d="M1138.45,2374.26a1.222,1.222,0,0,0,.026-.353l-.51-6.155a1.2,1.2,0,0,0-.9-1.06l-4.578-1.167a23.113,23.113,0,0,0-3.047-5.927l1.71-4.4a1.192,1.192,0,0,0-.345-1.348l-4.7-3.988a1.194,1.194,0,0,0-1.386-.115l-4.059,2.409a23.075,23.075,0,0,0-6.347-2.032l-1.9-4.325a1.2,1.2,0,0,0-1.195-.71l-6.152.509a1.2,1.2,0,0,0-1.059.9l-1.167,4.579a23.105,23.105,0,0,0-5.927,3.047l-4.4-1.711a1.191,1.191,0,0,0-1.348.346l-3.988,4.705a1.2,1.2,0,0,0-.117,1.384l2.41,4.059a22.981,22.981,0,0,0-2.03,6.349l-4.325,1.9a1.184,1.184,0,0,0-.708,1.2l.506,6.149a1.2,1.2,0,0,0,.9,1.06l4.58,1.167a23.171,23.171,0,0,0,3.047,5.927l-1.71,4.4a1.2,1.2,0,0,0,.343,1.346l4.708,3.989a1.192,1.192,0,0,0,1.385.115l4.058-2.41a23.138,23.138,0,0,0,6.348,2.033l1.9,4.324a1.2,1.2,0,0,0,1.189.711l6.157-.51a1.2,1.2,0,0,0,1.06-.9l1.166-4.58a23.136,23.136,0,0,0,5.926-3.048l4.4,1.711a1.2,1.2,0,0,0,1.347-.341l3.99-4.71a1.188,1.188,0,0,0,.117-1.384l-2.411-4.06a23.172,23.172,0,0,0,2.033-6.348l4.324-1.9A1.2,1.2,0,0,0,1138.45,2374.26Zm-2.005-6.132.468,5.654-4.873,2.144-.063.422a21.548,21.548,0,0,1-2.138,6.68l-.2.379,2.718,4.574-3.667,4.33-4.961-1.929-.342.254a21.586,21.586,0,0,1-6.235,3.206l-.407.132-1.315,5.158-5.654.468-2.143-4.872-.422-.063a21.6,21.6,0,0,1-6.68-2.139l-.381-.194-4.573,2.715-4.329-3.667,1.929-4.958-.253-.342a21.584,21.584,0,0,1-3.208-6.237l-.133-.407-5.158-1.314-.467-5.654,4.873-2.144.063-.422a21.482,21.482,0,0,1,2.136-6.679l.2-.379-2.716-4.576,3.668-4.328,4.959,1.927.343-.254a21.559,21.559,0,0,1,6.237-3.207l.407-.13,1.314-5.159,5.654-.468,2.143,4.873.422.062a21.6,21.6,0,0,1,6.679,2.139l.379.194,4.576-2.716,4.329,3.668-1.929,4.958.255.344a21.6,21.6,0,0,1,3.2,6.234l.131.407Zm-3.923,19.663Zm3.9-19.914Zm-6.614-12.849Zm-14.126,44.083Zm-5.8.718Zm-14.109-4.619ZM1091.062,2391.22Zm1.279-37.468Zm-8.4,18.467Zm-.21.35Zm42.008,3.834a15.667,15.667,0,1,0-22.67,10.419l.727-1.364a14.116,14.116,0,1,1,11.2.9l.5,1.464a15.721,15.721,0,0,0,10.242-11.422Z" transform="translate(-1082.398 -2345.085)" fill="#6b4c76"/>
      <path id="Path_942" data-name="Path 942" d="M1118.59,2376.54c.025-.111.046-.222.065-.335a6.255,6.255,0,1,0-11.258,2.611h0a6.255,6.255,0,0,0,11.193-2.276Zm-10.7-2.383a4.705,4.705,0,1,1,.762,3.76,4.705,4.705,0,0,1-.762-3.76Z" transform="translate(-1084.447 -2347.134)" fill="#6b4c76"/>
    </g>
  </g>
</svg>
